<?xml version="1.0" standalone="no"?>
<!DOCTYPE svg PUBLIC "-//W3C//DTD SVG 20010904//EN"
 "http://www.w3.org/TR/2001/REC-SVG-20010904/DTD/svg10.dtd">
<svg version="1.0" xmlns="http://www.w3.org/2000/svg"
 width="180.000000pt" height="180.000000pt" viewBox="0 0 180.000000 180.000000"
 preserveAspectRatio="xMidYMid meet">
<metadata>
Created by potrace 1.11, written by Peter Selinger 2001-2013
</metadata>
<g transform="translate(0.000000,180.000000) scale(0.100000,-0.100000)"
fill="#000000" stroke="none">
<path d="M730 1398 c-21 -49 -261 -962 -256 -974 3 -8 16 -14 30 -14 19 0 27
7 35 32 35 110 252 942 249 956 -5 27 -46 27 -58 0z"/>
<path d="M1270 1398 c-21 -50 -260 -963 -255 -976 3 -8 16 -12 32 -10 26 3 28
8 155 483 71 264 127 489 126 500 -4 30 -45 32 -58 3z"/>
<path d="M972 1297 c-13 -15 -122 -415 -122 -446 0 -21 36 -39 51 -24 4 4 33
102 64 218 31 116 58 215 60 222 4 13 -20 43 -34 43 -5 0 -13 -6 -19 -13z"/>
</g>
</svg>
