<svg xmlns="http://www.w3.org/2000/svg" viewBox="0 0 220 100"><defs><style>.f7e35459-106b-44f5-9fb6-5c45e6936e80{fill:#0d3755;}.a956290e-8af9-4002-9a6d-c8ef8f35c665{fill:#e64010;}</style></defs><title>laminas-components</title><g id="a8d58070-a41d-4b05-b69b-073c3b5c5a30" data-name="Laminas"><path class="f7e35459-106b-44f5-9fb6-5c45e6936e80" d="M81.44,32A1.32,1.32,0,0,1,83.26,31a1.36,1.36,0,0,1,1.13,1.84L72.72,76.34a1.52,1.52,0,0,1-2.94-.79Z"/><path class="f7e35459-106b-44f5-9fb6-5c45e6936e80" d="M106.21,32A1.32,1.32,0,0,1,108,31a1.36,1.36,0,0,1,1.13,1.84L97.49,76.34a1.53,1.53,0,0,1-2.95-.79Z"/><path class="f7e35459-106b-44f5-9fb6-5c45e6936e80" d="M32.53,25.75c0-1,.48-1.49,1.45-1.49a1.3,1.3,0,0,1,1.48,1.49V51.13H48.35c1,0,1.49.48,1.49,1.44a1.3,1.3,0,0,1-1.49,1.49H34.5c-1.33,0-2-.76-2-2.29v-26Z"/><path class="f7e35459-106b-44f5-9fb6-5c45e6936e80" d="M60.65,31.21c5.34,0,8.16,3.21,8.16,7.27V52.9a1.49,1.49,0,0,1-3,0c0-.77,0-1,0-1.37a9.39,9.39,0,0,1-6.86,2.81c-3.94,0-7.72-2.21-7.72-6.7,0-4.7,4.3-7.11,8.52-7.11,2.29,0,4.74.68,6.06,2V38.76c0-2.77-2.25-4.62-6-4.62-2.61,0-4.3,1-5.54,1a1.21,1.21,0,0,1-1.37-1.25A1.76,1.76,0,0,1,54,32.41,17.21,17.21,0,0,1,60.65,31.21Zm-1.2,20.36c3,0,6.3-1.6,6.3-4.38,0-2.45-3-3.85-6-3.85-2.81,0-5.5,1.28-5.5,4.1S56.72,51.57,59.45,51.57Z"/><path class="f7e35459-106b-44f5-9fb6-5c45e6936e80" d="M117.39,22.53a2,2,0,1,1-2,2A2,2,0,0,1,117.39,22.53ZM116,32.74a1.32,1.32,0,0,1,1.48-1.49c1,0,1.57.48,1.57,1.49V52.58c0,1-.52,1.48-1.53,1.48A1.33,1.33,0,0,1,116,52.58Z"/><path class="f7e35459-106b-44f5-9fb6-5c45e6936e80" d="M126.61,33c0-1.05.48-1.57,1.44-1.57s1.49.52,1.49,1.57v1.52a6.67,6.67,0,0,1,6-3.49,7.7,7.7,0,0,1,7.84,7.67v13.9c0,1-.49,1.44-1.49,1.44a1.28,1.28,0,0,1-1.45-1.44V40c0-4-2.69-6-5.38-6s-5.54,2.05-5.54,6V52.62a1.47,1.47,0,0,1-2.93,0Z"/><path class="f7e35459-106b-44f5-9fb6-5c45e6936e80" d="M157.73,31.21c5.34,0,8.15,3.21,8.15,7.27V52.9a1.49,1.49,0,0,1-3,0c0-.77,0-1,0-1.37A9.43,9.43,0,0,1,156,54.38c-3.94,0-7.71-2.21-7.71-6.7,0-4.7,4.3-7.11,8.52-7.11,2.28,0,4.73.68,6.06,2V38.76c0-2.77-2.25-4.62-6-4.62-2.61,0-4.29,1-5.54,1a1.21,1.21,0,0,1-1.36-1.25,1.76,1.76,0,0,1,1.12-1.45A17.3,17.3,0,0,1,157.73,31.21Zm-1.21,20.36c3.06,0,6.31-1.6,6.31-4.38,0-2.45-3.05-3.85-6-3.85-2.81,0-5.5,1.28-5.5,4.1S153.79,51.57,156.52,51.57Z"/><path class="f7e35459-106b-44f5-9fb6-5c45e6936e80" d="M179.23,51.53c2.17,0,4.94-.88,4.94-3.49,0-2-2.49-3.1-4.61-3.86-3.66-1.32-8.08-3.09-8.08-6.5,0-4.54,3.82-6.55,8.08-6.55a13.06,13.06,0,0,1,6.22,1.45,1.55,1.55,0,0,1,.77,1.4,1.3,1.3,0,0,1-1.37,1.41,1.82,1.82,0,0,1-.88-.24,10.8,10.8,0,0,0-4.82-1c-2.37,0-4.82.85-4.82,3.22,0,1.84,3.13,2.81,6.14,4,3.3,1.37,6.67,2.77,6.67,6.39,0,4.94-4.34,6.74-8.31,6.74a13.44,13.44,0,0,1-7.43-2.36,1.45,1.45,0,0,1-.52-1.21c0-1.12.56-1.65,1.32-1.65a2.18,2.18,0,0,1,1.17.45A10.11,10.11,0,0,0,179.23,51.53Z"/><path class="f7e35459-106b-44f5-9fb6-5c45e6936e80" d="M92.13,37.29a1.32,1.32,0,0,1,1.82-1,1.36,1.36,0,0,1,1.13,1.84L89.94,57.26A1.52,1.52,0,0,1,87,56.47Z"/></g><g id="a2a87ad7-3d8c-4ff8-a65c-1d21e7cae2d4" data-name="Ebene 1"><g id="b79489d6-db90-481d-9faf-96e2d0d6558e" data-name="components"><path class="a956290e-8af9-4002-9a6d-c8ef8f35c665" d="M124.67,75a.55.55,0,0,1,.59.6.77.77,0,0,1-.25.6,5.15,5.15,0,0,1-3.48,1.36c-3.72,0-5.56-3.12-5.56-6.26s1.91-6.42,5.65-6.42a4.88,4.88,0,0,1,3.44,1.33.77.77,0,0,1,.31.59.6.6,0,0,1-.58.65.82.82,0,0,1-.51-.19,3.81,3.81,0,0,0-2.7-1.06c-2.87,0-4.29,2.49-4.29,5s1.47,5.12,4.3,5.12a3.7,3.7,0,0,0,2.67-1.13A.54.54,0,0,1,124.67,75Z"/><path class="a956290e-8af9-4002-9a6d-c8ef8f35c665" d="M134.89,72.9c0,2.44-1.36,4.64-3.94,4.64S127,75.21,127,72.79,128.36,68,131,68,134.89,70.47,134.89,72.9Zm-6.61-.23c0,1.66.8,3.75,2.67,3.75s2.69-1.71,2.69-3.42-.85-3.8-2.69-3.8S128.28,71,128.28,72.67Z"/><path class="a956290e-8af9-4002-9a6d-c8ef8f35c665" d="M136.82,68.89c0-.47.2-.72.61-.72s.6.23.6.67v.64A2.71,2.71,0,0,1,140.39,68a2.66,2.66,0,0,1,2.46,1.71A3.23,3.23,0,0,1,145.72,68a2.91,2.91,0,0,1,3.05,2.88v5.84c0,.39-.2.58-.6.58s-.62-.19-.62-.58V71.43a2,2,0,0,0-1.89-2.15,2.38,2.38,0,0,0-2.29,2.56v4.91c0,.4-.19.6-.58.6a.53.53,0,0,1-.61-.6V71.43a1.92,1.92,0,0,0-1.9-2.11A2.33,2.33,0,0,0,138,71.84v4.91c0,.4-.19.6-.58.6a.53.53,0,0,1-.61-.6V68.89Z"/><path class="a956290e-8af9-4002-9a6d-c8ef8f35c665" d="M150.93,68.66c0-.42.19-.63.6-.63s.61.21.61.63V69.9A3,3,0,0,1,154.82,68c2.53,0,3.8,2.46,3.8,4.82s-1.27,4.71-3.8,4.71A2.89,2.89,0,0,1,152.14,76v4.51a.62.62,0,0,1-.62.65c-.4,0-.59-.23-.59-.67V68.66Zm6.47,4.26c0-1.62-.65-3.69-2.46-3.69s-2.71,1.91-2.71,3.62.82,3.6,2.71,3.6S157.4,74.56,157.4,72.92Z"/><path class="a956290e-8af9-4002-9a6d-c8ef8f35c665" d="M168.2,72.9c0,2.44-1.37,4.64-3.95,4.64s-3.94-2.33-3.94-4.75S161.66,68,164.25,68,168.2,70.47,168.2,72.9Zm-6.62-.23c0,1.66.8,3.75,2.67,3.75s2.69-1.71,2.69-3.42-.85-3.8-2.69-3.8S161.58,71,161.58,72.67Z"/><path class="a956290e-8af9-4002-9a6d-c8ef8f35c665" d="M170.13,68.83c0-.43.19-.64.58-.64s.61.21.61.64v.61A2.72,2.72,0,0,1,173.76,68a3.12,3.12,0,0,1,3.18,3.11v5.64c0,.39-.2.58-.6.58a.51.51,0,0,1-.59-.58V71.66a2.21,2.21,0,0,0-2.18-2.44,2.26,2.26,0,0,0-2.25,2.44v5.12c0,.39-.2.58-.61.58a.51.51,0,0,1-.58-.58v-8Z"/><path class="a956290e-8af9-4002-9a6d-c8ef8f35c665" d="M186.54,72.08c0,.88-.15,1.32-.92,1.32h-5.5A3.16,3.16,0,0,0,183,76.35a2.9,2.9,0,0,0,2.22-.83,1.08,1.08,0,0,1,.7-.29.5.5,0,0,1,.54.55.42.42,0,0,1-.12.33A4,4,0,0,1,183,77.56c-2.69,0-4.2-2.18-4.2-4.76,0-2.39,1.4-4.79,3.94-4.79S186.54,69.71,186.54,72.08Zm-1.21.15c0-1.66-1-3-2.51-3a2.83,2.83,0,0,0-2.69,3Z"/><path class="a956290e-8af9-4002-9a6d-c8ef8f35c665" d="M188.72,68.83c0-.43.19-.64.59-.64s.6.21.6.64v.61A2.72,2.72,0,0,1,192.35,68a3.12,3.12,0,0,1,3.18,3.11v5.64c0,.39-.19.58-.6.58a.52.52,0,0,1-.59-.58V71.66a2.21,2.21,0,0,0-2.18-2.44,2.26,2.26,0,0,0-2.25,2.44v5.12c0,.39-.2.58-.61.58a.51.51,0,0,1-.58-.58v-8Z"/><path class="a956290e-8af9-4002-9a6d-c8ef8f35c665" d="M198.24,67a.51.51,0,0,1,.58-.59c.41,0,.61.19.61.59v1.33h1.43c.43,0,.64.18.64.56s-.2.55-.61.55h-1.46v5c0,1.3.11,2,1.19,2,.47,0,.71.18.71.54s-.24.57-.71.57c-1.94,0-2.38-1.16-2.38-3.06v-5h-.52c-.39,0-.59-.18-.59-.55s.16-.54.51-.54h.6V67Z"/><path class="a956290e-8af9-4002-9a6d-c8ef8f35c665" d="M206.5,76.34c.88,0,2-.36,2-1.42,0-.8-1-1.25-1.87-1.56-1.49-.54-3.28-1.26-3.28-2.64,0-1.85,1.55-2.66,3.28-2.66a5.24,5.24,0,0,1,2.52.59.63.63,0,0,1,.31.57.53.53,0,0,1-.55.57.78.78,0,0,1-.36-.1,4.38,4.38,0,0,0-2-.43c-1,0-2,.35-2,1.31,0,.75,1.27,1.14,2.49,1.64s2.71,1.13,2.71,2.6c0,2-1.76,2.73-3.38,2.73a5.44,5.44,0,0,1-3-1,.57.57,0,0,1-.21-.49c0-.45.23-.67.53-.67a.92.92,0,0,1,.48.18A4,4,0,0,0,206.5,76.34Z"/></g></g></svg>