<svg id="Layer_1" data-name="Layer 1" xmlns="http://www.w3.org/2000/svg" viewBox="0 0 192.76 70.87"><title>laminas-mezzio-rgb</title><path d="M67.82,15.2a1.32,1.32,0,0,1,1.82-1A1.36,1.36,0,0,1,70.77,16L59.1,59.54a1.52,1.52,0,0,1-2.94-.79Z" fill="#013755"/><path d="M92.59,15.2a1.32,1.32,0,0,1,1.82-1A1.36,1.36,0,0,1,95.53,16L83.87,59.54a1.53,1.53,0,0,1-3-.79Z" fill="#013755"/><path d="M18.91,9c0-1,.48-1.49,1.44-1.49A1.31,1.31,0,0,1,21.84,9V34.33H34.73c1,0,1.49.48,1.49,1.45a1.3,1.3,0,0,1-1.49,1.48H20.88c-1.33,0-2-.76-2-2.29V9Z" fill="#013755"/><path d="M47,14.41c5.34,0,8.15,3.21,8.15,7.27V36.1a1.49,1.49,0,0,1-3,0c0-.76,0-1,0-1.37a9.43,9.43,0,0,1-6.87,2.82c-3.93,0-7.71-2.21-7.71-6.71,0-4.7,4.3-7.11,8.52-7.11,2.29,0,4.74.68,6.06,2V22c0-2.77-2.25-4.62-6-4.62-2.61,0-4.3,1-5.55,1a1.21,1.21,0,0,1-1.36-1.25,1.74,1.74,0,0,1,1.12-1.44A17.1,17.1,0,0,1,47,14.41Zm-1.2,20.36c3.05,0,6.3-1.6,6.3-4.37,0-2.45-3.05-3.86-6-3.86-2.81,0-5.5,1.29-5.5,4.1S43.09,34.77,45.83,34.77Z" fill="#013755"/><path d="M103.77,5.74a2,2,0,1,1-2,2A2,2,0,0,1,103.77,5.74Zm-1.41,10.2a1.32,1.32,0,0,1,1.49-1.49,1.36,1.36,0,0,1,1.56,1.49V35.78a1.53,1.53,0,0,1-3,0Z" fill="#013755"/><path d="M113,16.22c0-1,.48-1.57,1.44-1.57s1.49.52,1.49,1.57v1.52a6.68,6.68,0,0,1,6-3.49,7.69,7.69,0,0,1,7.83,7.67v13.9a1.47,1.47,0,0,1-2.93,0V23.21c0-4.06-2.69-6-5.38-6s-5.54,2.05-5.54,6V35.82c0,1-.48,1.44-1.49,1.44A1.27,1.27,0,0,1,113,35.82Z" fill="#013755"/><path d="M144.11,14.41c5.34,0,8.15,3.21,8.15,7.27V36.1a1.49,1.49,0,0,1-3,0c0-.76,0-1,0-1.37a9.43,9.43,0,0,1-6.87,2.82c-3.94,0-7.71-2.21-7.71-6.71,0-4.7,4.3-7.11,8.51-7.11,2.29,0,4.74.68,6.07,2V22c0-2.77-2.25-4.62-6-4.62-2.61,0-4.29,1-5.54,1a1.21,1.21,0,0,1-1.36-1.25,1.74,1.74,0,0,1,1.12-1.44A17.06,17.06,0,0,1,144.11,14.41ZM142.9,34.77c3,0,6.31-1.6,6.31-4.37,0-2.45-3.06-3.86-6-3.86-2.81,0-5.5,1.29-5.5,4.1S140.17,34.77,142.9,34.77Z" fill="#013755"/><path d="M165.61,34.73c2.17,0,4.94-.88,4.94-3.49,0-2-2.49-3.09-4.62-3.86-3.65-1.32-8.07-3.09-8.07-6.5,0-4.54,3.82-6.55,8.07-6.55a13.08,13.08,0,0,1,6.23,1.45,1.54,1.54,0,0,1,.76,1.4,1.29,1.29,0,0,1-1.36,1.41,1.89,1.89,0,0,1-.89-.24,10.86,10.86,0,0,0-4.81-1.05c-2.37,0-4.82.85-4.82,3.22,0,1.84,3.13,2.81,6.14,4.05,3.29,1.37,6.67,2.77,6.67,6.39,0,4.94-4.34,6.75-8.31,6.75a13.39,13.39,0,0,1-7.43-2.37,1.42,1.42,0,0,1-.53-1.21c0-1.12.57-1.64,1.33-1.64a2.1,2.1,0,0,1,1.16.44A10.14,10.14,0,0,0,165.61,34.73Z" fill="#013755"/><path d="M78.51,20.49a1.32,1.32,0,0,1,1.82-1,1.36,1.36,0,0,1,1.13,1.84L76.32,40.46a1.53,1.53,0,0,1-2.95-.79Z" fill="#013755"/><path d="M104,51.38v8.7a.6.6,0,0,1-.2.52,1,1,0,0,1-1.06,0,.63.63,0,0,1-.19-.52V49.6a.8.8,0,0,1,.27-.69,1.16,1.16,0,0,1,.72-.2,1.27,1.27,0,0,1,.7.16,1.17,1.17,0,0,1,.35.49l4,9.5,4-9.5a1.17,1.17,0,0,1,.35-.49,1.16,1.16,0,0,1,.67-.16,1.13,1.13,0,0,1,.71.2.85.85,0,0,1,.24.69V60.08a.63.63,0,0,1-.18.52.84.84,0,0,1-.53.15.87.87,0,0,1-.54-.15.6.6,0,0,1-.19-.52V51.36L109.36,60a1,1,0,0,1-.31.41.82.82,0,0,1-.56.17.8.8,0,0,1-.56-.17,1,1,0,0,1-.31-.41Z" fill="#009655"/><path d="M124.72,56.16c0,.41-.23.61-.69.61h-5.78a3,3,0,0,0,.69,2.12,2.48,2.48,0,0,0,1.94.75,2.41,2.41,0,0,0,1.48-.43,2.22,2.22,0,0,0,.42-.37l.26-.32a1.15,1.15,0,0,1,.23-.25.5.5,0,0,1,.33-.09.84.84,0,0,1,.47.15.49.49,0,0,1,.23.41,1,1,0,0,1-.19.53,3.84,3.84,0,0,1-.4.52,3.14,3.14,0,0,1-.63.53,3.75,3.75,0,0,1-.92.43,4.46,4.46,0,0,1-1.28.17,4.32,4.32,0,0,1-1.72-.33,3.7,3.7,0,0,1-1.32-.94,4.09,4.09,0,0,1-.83-1.44,5.48,5.48,0,0,1-.29-1.85,5.4,5.4,0,0,1,.29-1.85,4.07,4.07,0,0,1,.82-1.44,3.74,3.74,0,0,1,1.29-.93,4.21,4.21,0,0,1,1.69-.33,4.08,4.08,0,0,1,1.69.33,3.37,3.37,0,0,1,1.22.92,4,4,0,0,1,.75,1.38A5.63,5.63,0,0,1,124.72,56.16Zm-3.91-3.11a2.53,2.53,0,0,0-1,.19,2.17,2.17,0,0,0-.75.53,2.58,2.58,0,0,0-.49.78,3.77,3.77,0,0,0-.23,1h5a3.69,3.69,0,0,0-.21-.93,2.33,2.33,0,0,0-.46-.78,2.29,2.29,0,0,0-.74-.54A2.54,2.54,0,0,0,120.81,53.05Z" fill="#009655"/><path d="M127.7,59.41h5.1a.53.53,0,0,1,.46.16.71.71,0,0,1,.12.45.75.75,0,0,1-.12.45.53.53,0,0,1-.46.16h-6.16c-.55,0-.83-.25-.83-.75a.78.78,0,0,1,.07-.35,1.87,1.87,0,0,1,.29-.4l5-5.81h-4.59a.53.53,0,0,1-.46-.16.75.75,0,0,1-.12-.45.71.71,0,0,1,.12-.45.53.53,0,0,1,.46-.17h5.62q.84,0,.84.75a.73.73,0,0,1-.07.35,2,2,0,0,1-.29.4Z" fill="#009655"/><path d="M136.23,59.41h5.1a.53.53,0,0,1,.46.16.71.71,0,0,1,.12.45.75.75,0,0,1-.12.45.53.53,0,0,1-.46.16h-6.15c-.56,0-.83-.25-.83-.75a1,1,0,0,1,.06-.35,3,3,0,0,1,.29-.4l5.05-5.81h-4.59a.55.55,0,0,1-.46-.16.75.75,0,0,1-.12-.45.71.71,0,0,1,.12-.45.55.55,0,0,1,.46-.17h5.63c.55,0,.83.25.83.75a.73.73,0,0,1-.07.35,1.65,1.65,0,0,1-.29.4Z" fill="#009655"/><path d="M143.49,49.63a.92.92,0,0,1,.26-.69,1,1,0,0,1,.66-.24.92.92,0,0,1,.65.24.89.89,0,0,1,.27.69.9.9,0,0,1-.27.69.92.92,0,0,1-.65.24,1,1,0,0,1-.66-.24A.94.94,0,0,1,143.49,49.63Zm.21,3a.67.67,0,0,1,.18-.54,1.07,1.07,0,0,1,1.06,0,.62.62,0,0,1,.2.54v7.41a.59.59,0,0,1-.2.53,1,1,0,0,1-1.06,0,.64.64,0,0,1-.18-.53Z" fill="#009655"/><path d="M147.27,56.34a5.68,5.68,0,0,1,.29-1.91,4.09,4.09,0,0,1,.85-1.43,3.76,3.76,0,0,1,1.32-.89,5,5,0,0,1,3.4,0,3.76,3.76,0,0,1,1.32.89,4.09,4.09,0,0,1,.85,1.43,5.67,5.67,0,0,1,.3,1.91,5.79,5.79,0,0,1-.3,1.93,4,4,0,0,1-.85,1.43,3.78,3.78,0,0,1-1.32.9,4.68,4.68,0,0,1-3.4,0,3.78,3.78,0,0,1-1.32-.9,4,4,0,0,1-.85-1.43A5.8,5.8,0,0,1,147.27,56.34Zm1.53,0a3.87,3.87,0,0,0,.68,2.44,2.3,2.3,0,0,0,2,.88,2.33,2.33,0,0,0,2-.88,3.93,3.93,0,0,0,.68-2.44,3.84,3.84,0,0,0-.68-2.41,2.35,2.35,0,0,0-2-.87,2.32,2.32,0,0,0-2,.87A3.78,3.78,0,0,0,148.8,56.34Z" fill="#009655"/></svg>