<svg xmlns="http://www.w3.org/2000/svg" viewBox="0 0 220 100"><defs><style>.b9dc066c-3a9b-4ea6-9863-b3dfaaffaf58{fill:#0d3755;}.e530d572-17a2-4264-901f-08a32a772dc2{fill:#009ee3;}</style></defs><title>laminas-mvc</title><g id="b3881562-c68f-4fe8-b381-7e275f7f8114" data-name="Ebene 4"><path class="b9dc066c-3a9b-4ea6-9863-b3dfaaffaf58" d="M81.44,32A1.32,1.32,0,0,1,83.26,31a1.36,1.36,0,0,1,1.13,1.84L72.72,76.34a1.52,1.52,0,0,1-2.94-.79Z"/><path class="b9dc066c-3a9b-4ea6-9863-b3dfaaffaf58" d="M106.21,32A1.32,1.32,0,0,1,108,31a1.36,1.36,0,0,1,1.13,1.84L97.49,76.34a1.53,1.53,0,0,1-2.95-.79Z"/><path class="b9dc066c-3a9b-4ea6-9863-b3dfaaffaf58" d="M32.53,25.75c0-1,.48-1.49,1.45-1.49a1.3,1.3,0,0,1,1.48,1.49V51.13H48.35c1,0,1.49.48,1.49,1.44a1.3,1.3,0,0,1-1.49,1.49H34.5c-1.33,0-2-.76-2-2.29v-26Z"/><path class="b9dc066c-3a9b-4ea6-9863-b3dfaaffaf58" d="M60.65,31.21c5.34,0,8.16,3.21,8.16,7.27V52.9a1.49,1.49,0,0,1-3,0c0-.77,0-1,0-1.37a9.39,9.39,0,0,1-6.86,2.81c-3.94,0-7.72-2.21-7.72-6.7,0-4.7,4.3-7.11,8.52-7.11,2.29,0,4.74.68,6.06,2V38.76c0-2.77-2.25-4.62-6-4.62-2.61,0-4.3,1-5.54,1a1.21,1.21,0,0,1-1.37-1.25A1.76,1.76,0,0,1,54,32.41,17.21,17.21,0,0,1,60.65,31.21Zm-1.2,20.36c3,0,6.3-1.6,6.3-4.38,0-2.45-3-3.85-6-3.85-2.81,0-5.5,1.28-5.5,4.1S56.72,51.57,59.45,51.57Z"/><path class="b9dc066c-3a9b-4ea6-9863-b3dfaaffaf58" d="M117.39,22.53a2,2,0,1,1-2,2A2,2,0,0,1,117.39,22.53ZM116,32.74a1.32,1.32,0,0,1,1.48-1.49c1,0,1.57.48,1.57,1.49V52.58c0,1-.52,1.48-1.53,1.48A1.33,1.33,0,0,1,116,52.58Z"/><path class="b9dc066c-3a9b-4ea6-9863-b3dfaaffaf58" d="M126.61,33c0-1.05.48-1.57,1.44-1.57s1.49.52,1.49,1.57v1.52a6.67,6.67,0,0,1,6-3.49,7.7,7.7,0,0,1,7.84,7.67v13.9c0,1-.49,1.44-1.49,1.44a1.28,1.28,0,0,1-1.45-1.44V40c0-4-2.69-6-5.38-6s-5.54,2.05-5.54,6V52.62a1.47,1.47,0,0,1-2.93,0Z"/><path class="b9dc066c-3a9b-4ea6-9863-b3dfaaffaf58" d="M157.73,31.21c5.34,0,8.15,3.21,8.15,7.27V52.9a1.49,1.49,0,0,1-3,0c0-.77,0-1,0-1.37A9.43,9.43,0,0,1,156,54.38c-3.94,0-7.71-2.21-7.71-6.7,0-4.7,4.3-7.11,8.52-7.11,2.28,0,4.73.68,6.06,2V38.76c0-2.77-2.25-4.62-6-4.62-2.61,0-4.29,1-5.54,1a1.21,1.21,0,0,1-1.36-1.25,1.76,1.76,0,0,1,1.12-1.45A17.3,17.3,0,0,1,157.73,31.21Zm-1.21,20.36c3.06,0,6.31-1.6,6.31-4.38,0-2.45-3.05-3.85-6-3.85-2.81,0-5.5,1.28-5.5,4.1S153.79,51.57,156.52,51.57Z"/><path class="b9dc066c-3a9b-4ea6-9863-b3dfaaffaf58" d="M179.23,51.53c2.17,0,4.94-.88,4.94-3.49,0-2-2.49-3.1-4.61-3.86-3.66-1.32-8.08-3.09-8.08-6.5,0-4.54,3.82-6.55,8.08-6.55a13.06,13.06,0,0,1,6.22,1.45,1.55,1.55,0,0,1,.77,1.4,1.3,1.3,0,0,1-1.37,1.41,1.82,1.82,0,0,1-.88-.24,10.8,10.8,0,0,0-4.82-1c-2.37,0-4.82.85-4.82,3.22,0,1.84,3.13,2.81,6.14,4,3.3,1.37,6.67,2.77,6.67,6.39,0,4.94-4.34,6.74-8.31,6.74a13.44,13.44,0,0,1-7.43-2.36,1.45,1.45,0,0,1-.52-1.21c0-1.12.56-1.65,1.32-1.65a2.18,2.18,0,0,1,1.17.45A10.11,10.11,0,0,0,179.23,51.53Z"/><path class="b9dc066c-3a9b-4ea6-9863-b3dfaaffaf58" d="M92.13,37.29a1.32,1.32,0,0,1,1.82-1,1.36,1.36,0,0,1,1.13,1.84L89.94,57.26A1.52,1.52,0,0,1,87,56.47Z"/><g id="f0a2539d-ac6a-47d9-986d-06858d74d6f0" data-name="mvc"><path class="e530d572-17a2-4264-901f-08a32a772dc2" d="M122.24,75.44,125,66.59c.21-.7.63-1,1.16-1s.9.38,1,1.18l1.51,10.13c0,.05,0,.08,0,.13a.57.57,0,0,1-.6.59c-.39,0-.59-.21-.65-.65L126,67.06l-3.17,9.83c-.14.47-.39.69-.66.69s-.52-.22-.67-.69l-3.05-9.84L117,76.9c-.07.44-.25.67-.65.67a.51.51,0,0,1-.57-.55.68.68,0,0,1,0-.2l1.6-10.1c.13-.81.47-1.22,1-1.22s.93.36,1.14,1.09Z"/><path class="e530d572-17a2-4264-901f-08a32a772dc2" d="M134.37,75.57,137.68,66a.59.59,0,0,1,.57-.47.74.74,0,0,1,.71.66.48.48,0,0,1,0,.2l-3.63,10.18c-.24.66-.55,1-.92,1s-.62-.29-.83-.86L129.82,66.4a1,1,0,0,1,0-.3c0-.39.21-.58.62-.58A.63.63,0,0,1,131,66Z"/><path class="e530d572-17a2-4264-901f-08a32a772dc2" d="M148.7,75.21a.55.55,0,0,1,.59.6.8.8,0,0,1-.25.61,5.13,5.13,0,0,1-3.47,1.34c-3.7,0-5.54-3.1-5.54-6.23s1.9-6.4,5.64-6.4a4.86,4.86,0,0,1,3.42,1.34.74.74,0,0,1,.31.58.6.6,0,0,1-.58.65.79.79,0,0,1-.51-.2,3.76,3.76,0,0,0-2.69-1c-2.86,0-4.27,2.48-4.27,5s1.46,5.1,4.28,5.1a3.71,3.71,0,0,0,2.67-1.12A.53.53,0,0,1,148.7,75.21Z"/></g></g></svg>