<svg id="Layer_1" data-name="Layer 1" xmlns="http://www.w3.org/2000/svg" viewBox="0 0 192.76 70.87"><title>laminas-api-tools-rgb</title><path d="M67.82,15.17a1.32,1.32,0,0,1,1.82-1.05A1.36,1.36,0,0,1,70.77,16L59.1,59.51a1.52,1.52,0,0,1-2.94-.79Z" fill="#013755"/><path d="M92.59,15.17a1.32,1.32,0,0,1,1.82-1.05A1.36,1.36,0,0,1,95.53,16L83.87,59.51a1.53,1.53,0,0,1-3-.79Z" fill="#013755"/><path d="M18.91,8.92c0-1,.48-1.49,1.44-1.49a1.3,1.3,0,0,1,1.49,1.49V34.3H34.73c1,0,1.49.48,1.49,1.44a1.3,1.3,0,0,1-1.49,1.49H20.88c-1.33,0-2-.76-2-2.29v-26Z" fill="#013755"/><path d="M47,14.38c5.34,0,8.15,3.21,8.15,7.27V36.07a1.49,1.49,0,0,1-3,0c0-.77,0-1,0-1.37a9.43,9.43,0,0,1-6.87,2.81c-3.93,0-7.71-2.21-7.71-6.71,0-4.69,4.3-7.1,8.52-7.1,2.29,0,4.74.68,6.06,2V21.93c0-2.77-2.25-4.62-6-4.62-2.61,0-4.3,1-5.55,1A1.2,1.2,0,0,1,39.24,17a1.75,1.75,0,0,1,1.12-1.45A17.3,17.3,0,0,1,47,14.38Zm-1.2,20.36c3.05,0,6.3-1.61,6.3-4.38,0-2.45-3.05-3.85-6-3.85-2.81,0-5.5,1.28-5.5,4.09S43.09,34.74,45.83,34.74Z" fill="#013755"/><path d="M103.77,5.7a2,2,0,1,1-2,2A2,2,0,0,1,103.77,5.7Zm-1.41,10.2a1.32,1.32,0,0,1,1.49-1.48c1,0,1.56.48,1.56,1.48V35.74a1.53,1.53,0,0,1-3,0Z" fill="#013755"/><path d="M113,16.19c0-1.05.48-1.57,1.44-1.57s1.49.52,1.49,1.57v1.52a6.66,6.66,0,0,1,6-3.49,7.69,7.69,0,0,1,7.83,7.67V35.78a1.47,1.47,0,0,1-2.93,0V23.17c0-4.05-2.69-6-5.38-6s-5.54,2.05-5.54,6V35.79c0,1-.48,1.44-1.49,1.44A1.27,1.27,0,0,1,113,35.79Z" fill="#013755"/><path d="M144.11,14.38c5.34,0,8.15,3.21,8.15,7.27V36.07a1.49,1.49,0,0,1-3,0c0-.77,0-1,0-1.37a9.43,9.43,0,0,1-6.87,2.81c-3.94,0-7.71-2.21-7.71-6.71,0-4.69,4.3-7.1,8.51-7.1,2.29,0,4.74.68,6.07,2V21.93c0-2.77-2.25-4.62-6-4.62-2.61,0-4.29,1-5.54,1A1.2,1.2,0,0,1,136.32,17a1.75,1.75,0,0,1,1.12-1.45A17.26,17.26,0,0,1,144.11,14.38ZM142.9,34.74c3,0,6.31-1.61,6.31-4.38,0-2.45-3.06-3.85-6-3.85-2.81,0-5.5,1.28-5.5,4.09S140.17,34.74,142.9,34.74Z" fill="#013755"/><path d="M165.61,34.7c2.17,0,4.94-.88,4.94-3.49,0-2-2.49-3.1-4.62-3.86-3.65-1.32-8.07-3.09-8.07-6.51,0-4.53,3.82-6.54,8.07-6.54a13.18,13.18,0,0,1,6.23,1.44,1.57,1.57,0,0,1,.76,1.41,1.3,1.3,0,0,1-1.36,1.41,1.89,1.89,0,0,1-.89-.24,10.72,10.72,0,0,0-4.81-1.05c-2.37,0-4.82.84-4.82,3.21,0,1.85,3.13,2.82,6.14,4.06,3.29,1.37,6.67,2.77,6.67,6.39,0,4.94-4.34,6.74-8.31,6.74a13.31,13.31,0,0,1-7.43-2.37,1.4,1.4,0,0,1-.53-1.2c0-1.12.57-1.65,1.33-1.65a2.1,2.1,0,0,1,1.16.44A10.06,10.06,0,0,0,165.61,34.7Z" fill="#013755"/><path d="M78.51,20.46a1.31,1.31,0,0,1,1.82-1.05,1.36,1.36,0,0,1,1.13,1.84L76.32,40.43a1.53,1.53,0,0,1-2.95-.79Z" fill="#013755"/><path d="M103,60.78a1.14,1.14,0,0,1-.59-.16.5.5,0,0,1-.28-.45.93.93,0,0,1,0-.14,1.23,1.23,0,0,1,.08-.22l4.47-10.61a.77.77,0,0,1,.82-.45,1.05,1.05,0,0,1,.57.12.75.75,0,0,1,.26.33l4.44,10.58a1.19,1.19,0,0,1,.08.21v.14a.52.52,0,0,1-.28.48,1.13,1.13,0,0,1-.6.17.49.49,0,0,1-.37-.13.87.87,0,0,1-.22-.31l-1.31-3.06h-5.21l-1.32,3.08A.6.6,0,0,1,103,60.78Zm4.5-10.06L105.38,56h4.15Z" fill="#e5007e"/><path d="M115.33,60.78a.88.88,0,0,1-.55-.15.7.7,0,0,1-.18-.55V49.59a.69.69,0,0,1,.21-.56.9.9,0,0,1,.57-.17h3a5.27,5.27,0,0,1,3.42.92,3.27,3.27,0,0,1,1.09,2.64,4.2,4.2,0,0,1-.17,1.08,2.82,2.82,0,0,1-.63,1.16,3.82,3.82,0,0,1-1.32.92,5.48,5.48,0,0,1-2.2.37h-2.54v4.13a.67.67,0,0,1-.19.55A.9.9,0,0,1,115.33,60.78Zm2.89-6.1a6.41,6.41,0,0,0,1.51-.16,2.63,2.63,0,0,0,1-.46,1.67,1.67,0,0,0,.52-.72,2.43,2.43,0,0,0,.17-.92,2.67,2.67,0,0,0-.16-.91,1.65,1.65,0,0,0-.51-.72,2.41,2.41,0,0,0-.93-.48,5.28,5.28,0,0,0-1.43-.17h-2.3v4.54Z" fill="#e5007e"/><path d="M125,49.44a.64.64,0,0,1,.19-.54.9.9,0,0,1,.55-.15.91.91,0,0,1,.56.15.64.64,0,0,1,.19.54V60.08a.67.67,0,0,1-.19.55.91.91,0,0,1-.56.15.9.9,0,0,1-.55-.15.67.67,0,0,1-.19-.55Z" fill="#e5007e"/><path d="M138,60.08a.67.67,0,0,1-.19.55.9.9,0,0,1-.55.15.91.91,0,0,1-.56-.15.67.67,0,0,1-.19-.55V50.17h-3.55a.63.63,0,0,1-.51-.17.75.75,0,0,1-.14-.49.71.71,0,0,1,.14-.48.66.66,0,0,1,.51-.17h8.6a.64.64,0,0,1,.5.17.71.71,0,0,1,.14.48A.75.75,0,0,1,142,50a.61.61,0,0,1-.5.17H138Z" fill="#e5007e"/><path d="M141,56.38a5.63,5.63,0,0,1,.3-1.91,3.92,3.92,0,0,1,.85-1.43,3.63,3.63,0,0,1,1.32-.89,4.82,4.82,0,0,1,3.4,0,3.51,3.51,0,0,1,1.31.89,3.78,3.78,0,0,1,.85,1.43,5.63,5.63,0,0,1,.3,1.91,5.77,5.77,0,0,1-.3,1.92,3.9,3.9,0,0,1-.85,1.44,3.65,3.65,0,0,1-1.31.9,4.82,4.82,0,0,1-3.4,0,3.78,3.78,0,0,1-1.32-.9,4,4,0,0,1-.85-1.44A5.77,5.77,0,0,1,141,56.38Zm1.53,0a3.92,3.92,0,0,0,.68,2.43,2.61,2.61,0,0,0,3.91,0,3.86,3.86,0,0,0,.68-2.43,3.81,3.81,0,0,0-.68-2.42,2.65,2.65,0,0,0-3.91,0A3.87,3.87,0,0,0,142.49,56.38Z" fill="#e5007e"/><path d="M151,56.38a5.63,5.63,0,0,1,.3-1.91,3.78,3.78,0,0,1,.85-1.43,3.51,3.51,0,0,1,1.31-.89,4.82,4.82,0,0,1,3.4,0,3.63,3.63,0,0,1,1.32.89,3.92,3.92,0,0,1,.85,1.43,5.63,5.63,0,0,1,.3,1.91,5.77,5.77,0,0,1-.3,1.92,4,4,0,0,1-.85,1.44,3.78,3.78,0,0,1-1.32.9,4.82,4.82,0,0,1-3.4,0,3.65,3.65,0,0,1-1.31-.9,3.9,3.9,0,0,1-.85-1.44A5.77,5.77,0,0,1,151,56.38Zm1.53,0a3.86,3.86,0,0,0,.68,2.43,2.3,2.3,0,0,0,2,.88,2.33,2.33,0,0,0,2-.88,3.92,3.92,0,0,0,.68-2.43,3.87,3.87,0,0,0-.68-2.42,2.37,2.37,0,0,0-2-.86,2.34,2.34,0,0,0-2,.86A3.81,3.81,0,0,0,152.49,56.38Z" fill="#e5007e"/><path d="M161.41,49.42a.65.65,0,0,1,.19-.53.82.82,0,0,1,.53-.14.85.85,0,0,1,.53.14.62.62,0,0,1,.2.53V60.1a.65.65,0,0,1-.2.54.92.92,0,0,1-.53.14.88.88,0,0,1-.53-.14.68.68,0,0,1-.19-.54Z" fill="#e5007e"/><path d="M165.37,60.12a1,1,0,0,1-.26-.3.63.63,0,0,1-.08-.28.84.84,0,0,1,.21-.54.62.62,0,0,1,.49-.24.71.71,0,0,1,.32.07,2.23,2.23,0,0,1,.33.2,5.27,5.27,0,0,0,.83.46,3.21,3.21,0,0,0,1.36.25,2.32,2.32,0,0,0,1.39-.35,1.15,1.15,0,0,0,.48-1,2,2,0,0,0-.05-.43.89.89,0,0,0-.23-.39,1.67,1.67,0,0,0-.52-.33,3.83,3.83,0,0,0-.92-.23l-1-.17a3.45,3.45,0,0,1-1.81-.78,2.16,2.16,0,0,1-.71-1.72,2.21,2.21,0,0,1,.89-1.87,4,4,0,0,1,2.43-.66,6.83,6.83,0,0,1,1.18.09,5.51,5.51,0,0,1,.84.23,3.63,3.63,0,0,1,.56.28,3.38,3.38,0,0,1,.34.25.75.75,0,0,1,.32.54.78.78,0,0,1-.16.49.55.55,0,0,1-.47.21.85.85,0,0,1-.35-.08l-.38-.21c-.21-.12-.47-.25-.77-.39a2.85,2.85,0,0,0-1.18-.2,2.14,2.14,0,0,0-1.35.34,1,1,0,0,0-.44.86,2,2,0,0,0,.05.43,1,1,0,0,0,.22.38,1.37,1.37,0,0,0,.47.32,3.46,3.46,0,0,0,.84.2l1.06.17a3.45,3.45,0,0,1,2,.81,2.26,2.26,0,0,1,.66,1.74,2.37,2.37,0,0,1-.87,2,3.85,3.85,0,0,1-2.48.7,8.27,8.27,0,0,1-1.17-.08,6.55,6.55,0,0,1-.92-.22,3.47,3.47,0,0,1-.66-.27A3.5,3.5,0,0,1,165.37,60.12Z" fill="#e5007e"/></svg>