<svg xmlns="http://www.w3.org/2000/svg" viewBox="0 0 220 100"><defs><style>.af34a4bb-deb0-421e-8f26-41674ec95b1d{fill:#0d3755;}.b8ff8a0a-c4b6-4194-aeb5-c2f49074585d{fill:#e5007e;}</style></defs><title>laminas-api-tools</title><g id="f9a1b37c-1b77-496d-bc80-5d987091588c" data-name="Ebene 3"><path class="af34a4bb-deb0-421e-8f26-41674ec95b1d" d="M81.44,32A1.32,1.32,0,0,1,83.26,31a1.36,1.36,0,0,1,1.13,1.84L72.72,76.34a1.52,1.52,0,0,1-2.94-.79Z"/><path class="af34a4bb-deb0-421e-8f26-41674ec95b1d" d="M106.21,32A1.32,1.32,0,0,1,108,31a1.36,1.36,0,0,1,1.13,1.84L97.49,76.34a1.53,1.53,0,0,1-2.95-.79Z"/><path class="af34a4bb-deb0-421e-8f26-41674ec95b1d" d="M32.53,25.75c0-1,.48-1.49,1.45-1.49a1.3,1.3,0,0,1,1.48,1.49V51.13H48.35c1,0,1.49.48,1.49,1.44a1.3,1.3,0,0,1-1.49,1.49H34.5c-1.33,0-2-.76-2-2.29v-26Z"/><path class="af34a4bb-deb0-421e-8f26-41674ec95b1d" d="M60.65,31.21c5.34,0,8.16,3.21,8.16,7.27V52.9a1.49,1.49,0,0,1-3,0c0-.77,0-1,0-1.37a9.39,9.39,0,0,1-6.86,2.81c-3.94,0-7.72-2.21-7.72-6.7,0-4.7,4.3-7.11,8.52-7.11,2.29,0,4.74.68,6.06,2V38.76c0-2.77-2.25-4.62-6-4.62-2.61,0-4.3,1-5.54,1a1.21,1.21,0,0,1-1.37-1.25A1.76,1.76,0,0,1,54,32.41,17.21,17.21,0,0,1,60.65,31.21Zm-1.2,20.36c3,0,6.3-1.6,6.3-4.38,0-2.45-3-3.85-6-3.85-2.81,0-5.5,1.28-5.5,4.1S56.72,51.57,59.45,51.57Z"/><path class="af34a4bb-deb0-421e-8f26-41674ec95b1d" d="M117.39,22.53a2,2,0,1,1-2,2A2,2,0,0,1,117.39,22.53ZM116,32.74a1.32,1.32,0,0,1,1.48-1.49c1,0,1.57.48,1.57,1.49V52.58c0,1-.52,1.48-1.53,1.48A1.33,1.33,0,0,1,116,52.58Z"/><path class="af34a4bb-deb0-421e-8f26-41674ec95b1d" d="M126.61,33c0-1.05.48-1.57,1.44-1.57s1.49.52,1.49,1.57v1.52a6.67,6.67,0,0,1,6-3.49,7.7,7.7,0,0,1,7.84,7.67v13.9c0,1-.49,1.44-1.49,1.44a1.28,1.28,0,0,1-1.45-1.44V40c0-4-2.69-6-5.38-6s-5.54,2.05-5.54,6V52.62a1.47,1.47,0,0,1-2.93,0Z"/><path class="af34a4bb-deb0-421e-8f26-41674ec95b1d" d="M157.73,31.21c5.34,0,8.15,3.21,8.15,7.27V52.9a1.49,1.49,0,0,1-3,0c0-.77,0-1,0-1.37A9.43,9.43,0,0,1,156,54.38c-3.94,0-7.71-2.21-7.71-6.7,0-4.7,4.3-7.11,8.52-7.11,2.28,0,4.73.68,6.06,2V38.76c0-2.77-2.25-4.62-6-4.62-2.61,0-4.29,1-5.54,1a1.21,1.21,0,0,1-1.36-1.25,1.76,1.76,0,0,1,1.12-1.45A17.3,17.3,0,0,1,157.73,31.21Zm-1.21,20.36c3.06,0,6.31-1.6,6.31-4.38,0-2.45-3.05-3.85-6-3.85-2.81,0-5.5,1.28-5.5,4.1S153.79,51.57,156.52,51.57Z"/><path class="af34a4bb-deb0-421e-8f26-41674ec95b1d" d="M179.23,51.53c2.17,0,4.94-.88,4.94-3.49,0-2-2.49-3.1-4.61-3.86-3.66-1.32-8.08-3.09-8.08-6.5,0-4.54,3.82-6.55,8.08-6.55a13.06,13.06,0,0,1,6.22,1.45,1.55,1.55,0,0,1,.77,1.4,1.3,1.3,0,0,1-1.37,1.41,1.82,1.82,0,0,1-.88-.24,10.8,10.8,0,0,0-4.82-1c-2.37,0-4.82.85-4.82,3.22,0,1.84,3.13,2.81,6.14,4,3.3,1.37,6.67,2.77,6.67,6.39,0,4.94-4.34,6.74-8.31,6.74a13.44,13.44,0,0,1-7.43-2.36,1.45,1.45,0,0,1-.52-1.21c0-1.12.56-1.65,1.32-1.65a2.18,2.18,0,0,1,1.17.45A10.11,10.11,0,0,0,179.23,51.53Z"/><path class="af34a4bb-deb0-421e-8f26-41674ec95b1d" d="M92.13,37.29a1.32,1.32,0,0,1,1.82-1,1.36,1.36,0,0,1,1.13,1.84L89.94,57.26A1.52,1.52,0,0,1,87,56.47Z"/><g id="a250c47d-c621-4c47-a642-3359febba62e" data-name="api tools"><path class="b8ff8a0a-c4b6-4194-aeb5-c2f49074585d" d="M116.42,77.63a1.21,1.21,0,0,1-.59-.16.51.51,0,0,1-.28-.45v-.14a1.43,1.43,0,0,1,.08-.22l4.47-10.61a.76.76,0,0,1,.82-.45,1,1,0,0,1,.57.12.66.66,0,0,1,.26.33l4.44,10.58a1,1,0,0,1,.08.21V77a.52.52,0,0,1-.28.48,1.16,1.16,0,0,1-.6.17.5.5,0,0,1-.37-.13.84.84,0,0,1-.22-.31l-1.31-3.06h-5.21L117,77.21A.61.61,0,0,1,116.42,77.63Zm4.5-10.06-2.12,5.28H123Z"/><path class="b8ff8a0a-c4b6-4194-aeb5-c2f49074585d" d="M128.75,77.63a.88.88,0,0,1-.55-.15.7.7,0,0,1-.18-.55V66.44a.68.68,0,0,1,.21-.56.89.89,0,0,1,.57-.17h3a5.21,5.21,0,0,1,3.42.92,3.26,3.26,0,0,1,1.09,2.64,4.42,4.42,0,0,1-.17,1.08,2.86,2.86,0,0,1-.63,1.16,3.93,3.93,0,0,1-1.32.92,5.51,5.51,0,0,1-2.2.37h-2.54v4.13a.7.7,0,0,1-.19.55A.92.92,0,0,1,128.75,77.63Zm2.89-6.1a7,7,0,0,0,1.51-.16,2.68,2.68,0,0,0,1-.46,1.78,1.78,0,0,0,.52-.72,2.67,2.67,0,0,0,.17-.92,2.81,2.81,0,0,0-.16-.91,1.61,1.61,0,0,0-.51-.72,2.36,2.36,0,0,0-.93-.48,5.33,5.33,0,0,0-1.43-.17h-2.3v4.54Z"/><path class="b8ff8a0a-c4b6-4194-aeb5-c2f49074585d" d="M138.42,66.29a.61.61,0,0,1,.19-.54.88.88,0,0,1,.55-.15.87.87,0,0,1,.56.15.67.67,0,0,1,.19.54V76.93a.7.7,0,0,1-.19.55.93.93,0,0,1-.56.15.88.88,0,0,1-.55-.15.7.7,0,0,1-.19-.55Z"/><path class="b8ff8a0a-c4b6-4194-aeb5-c2f49074585d" d="M151.42,76.93a.7.7,0,0,1-.19.55.9.9,0,0,1-.55.15.91.91,0,0,1-.56-.15.7.7,0,0,1-.19-.55V67h-3.55a.64.64,0,0,1-.51-.17.8.8,0,0,1-.14-.49.74.74,0,0,1,.14-.48.64.64,0,0,1,.51-.17H155a.63.63,0,0,1,.5.17.74.74,0,0,1,.14.48.82.82,0,0,1-.2.49.62.62,0,0,1-.5.17h-3.5Z"/><path class="b8ff8a0a-c4b6-4194-aeb5-c2f49074585d" d="M154.42,73.23a5.62,5.62,0,0,1,.3-1.91,3.91,3.91,0,0,1,.85-1.43,3.59,3.59,0,0,1,1.32-.89,4.74,4.74,0,0,1,3.4,0,3.36,3.36,0,0,1,1.31.89,3.59,3.59,0,0,1,.85,1.43,5.62,5.62,0,0,1,.3,1.91,5.71,5.71,0,0,1-.3,1.92,4.13,4.13,0,0,1-.85,1.44,3.7,3.7,0,0,1-1.31.9,4.85,4.85,0,0,1-3.4,0,3.87,3.87,0,0,1-1.32-.9,4.13,4.13,0,0,1-.85-1.44A5.71,5.71,0,0,1,154.42,73.23Zm1.53,0a3.91,3.91,0,0,0,.68,2.43,2.6,2.6,0,0,0,3.68.22,2.39,2.39,0,0,0,.23-.22,3.89,3.89,0,0,0,.68-2.43,3.85,3.85,0,0,0-.68-2.42,2.66,2.66,0,0,0-3.75-.17l-.16.17a3.86,3.86,0,0,0-.72,2.42Z"/><path class="b8ff8a0a-c4b6-4194-aeb5-c2f49074585d" d="M164.42,73.23a5.62,5.62,0,0,1,.3-1.91,3.59,3.59,0,0,1,.85-1.43,3.36,3.36,0,0,1,1.31-.89,4.74,4.74,0,0,1,3.4,0,3.59,3.59,0,0,1,1.32.89,3.91,3.91,0,0,1,.85,1.43,5.62,5.62,0,0,1,.3,1.91,5.71,5.71,0,0,1-.3,1.92,4.13,4.13,0,0,1-.85,1.44,3.87,3.87,0,0,1-1.32.9,4.85,4.85,0,0,1-3.4,0,3.61,3.61,0,0,1-1.31-.9,3.84,3.84,0,0,1-.85-1.44A5.71,5.71,0,0,1,164.42,73.23Zm1.53,0a3.89,3.89,0,0,0,.68,2.43,2.31,2.31,0,0,0,2,.88,2.37,2.37,0,0,0,2-.88,3.91,3.91,0,0,0,.68-2.43,3.86,3.86,0,0,0-.68-2.42,2.76,2.76,0,0,0-4,0,3.8,3.8,0,0,0-.72,2.42Z"/><path class="b8ff8a0a-c4b6-4194-aeb5-c2f49074585d" d="M174.83,66.27a.65.65,0,0,1,.19-.53.76.76,0,0,1,.53-.14.78.78,0,0,1,.53.14.62.62,0,0,1,.2.53V77a.65.65,0,0,1-.2.54,1.07,1.07,0,0,1-1.06,0,.68.68,0,0,1-.19-.54Z"/><path class="b8ff8a0a-c4b6-4194-aeb5-c2f49074585d" d="M178.79,77a.93.93,0,0,1-.26-.3.57.57,0,0,1-.08-.28.83.83,0,0,1,.21-.54.63.63,0,0,1,.49-.24.6.6,0,0,1,.32.07,1.94,1.94,0,0,1,.33.2,6.07,6.07,0,0,0,.83.46,3.32,3.32,0,0,0,1.36.25,2.35,2.35,0,0,0,1.39-.35,1.16,1.16,0,0,0,.48-1,2,2,0,0,0-.05-.43.81.81,0,0,0-.23-.39,1.58,1.58,0,0,0-.52-.33,3.76,3.76,0,0,0-.92-.23l-1-.17a3.44,3.44,0,0,1-1.81-.78,2.13,2.13,0,0,1-.71-1.72,2.19,2.19,0,0,1,.89-1.87,4,4,0,0,1,2.43-.66,5.87,5.87,0,0,1,1.18.09A5,5,0,0,1,184,69a3.25,3.25,0,0,1,.56.28,2.7,2.7,0,0,1,.34.25.73.73,0,0,1,.32.54.8.8,0,0,1-.16.49.56.56,0,0,1-.47.21.85.85,0,0,1-.35-.08l-.38-.21c-.21-.12-.47-.25-.77-.39a2.82,2.82,0,0,0-1.18-.2,2.14,2.14,0,0,0-1.35.34,1,1,0,0,0-.44.86,2.1,2.1,0,0,0,0,.43,1,1,0,0,0,.22.38,1.4,1.4,0,0,0,.47.32,3.43,3.43,0,0,0,.84.2l1.06.17a3.42,3.42,0,0,1,2,.81,2.26,2.26,0,0,1,.66,1.74,2.37,2.37,0,0,1-.87,2,3.85,3.85,0,0,1-2.48.7,9.2,9.2,0,0,1-1.17-.08,7.24,7.24,0,0,1-.92-.22,3.81,3.81,0,0,1-.66-.27A3.9,3.9,0,0,1,178.79,77Z"/></g></g></svg>