<svg xmlns="http://www.w3.org/2000/svg" viewBox="0 0 220 100"><defs><style>.aac4fcf8-3ad4-4745-bcda-d8b206173e69{fill:#0d3755;}.bd210623-e1f1-42f3-85cc-b05cfa904402{fill:#009655;}</style></defs><title>laminas-mezzio</title><g id="b5cd823a-f389-4e1f-b1b2-c1a227253953" data-name="Ebene 2"><path class="aac4fcf8-3ad4-4745-bcda-d8b206173e69" d="M81.44,32A1.32,1.32,0,0,1,83.26,31a1.36,1.36,0,0,1,1.13,1.84L72.72,76.34a1.52,1.52,0,0,1-2.94-.79Z"/><path class="aac4fcf8-3ad4-4745-bcda-d8b206173e69" d="M106.21,32A1.32,1.32,0,0,1,108,31a1.36,1.36,0,0,1,1.13,1.84L97.49,76.34a1.53,1.53,0,0,1-2.95-.79Z"/><path class="aac4fcf8-3ad4-4745-bcda-d8b206173e69" d="M32.53,25.75c0-1,.48-1.49,1.45-1.49a1.3,1.3,0,0,1,1.48,1.49V51.13H48.35c1,0,1.49.48,1.49,1.44a1.3,1.3,0,0,1-1.49,1.49H34.5c-1.33,0-2-.76-2-2.29v-26Z"/><path class="aac4fcf8-3ad4-4745-bcda-d8b206173e69" d="M60.65,31.21c5.34,0,8.16,3.21,8.16,7.27V52.9a1.49,1.49,0,0,1-3,0c0-.77,0-1,0-1.37a9.39,9.39,0,0,1-6.86,2.81c-3.94,0-7.72-2.21-7.72-6.7,0-4.7,4.3-7.11,8.52-7.11,2.29,0,4.74.68,6.06,2V38.76c0-2.77-2.25-4.62-6-4.62-2.61,0-4.3,1-5.54,1a1.21,1.21,0,0,1-1.37-1.25A1.76,1.76,0,0,1,54,32.41,17.21,17.21,0,0,1,60.65,31.21Zm-1.2,20.36c3,0,6.3-1.6,6.3-4.38,0-2.45-3-3.85-6-3.85-2.81,0-5.5,1.28-5.5,4.1S56.72,51.57,59.45,51.57Z"/><path class="aac4fcf8-3ad4-4745-bcda-d8b206173e69" d="M117.39,22.53a2,2,0,1,1-2,2A2,2,0,0,1,117.39,22.53ZM116,32.74a1.32,1.32,0,0,1,1.48-1.49c1,0,1.57.48,1.57,1.49V52.58c0,1-.52,1.48-1.53,1.48A1.33,1.33,0,0,1,116,52.58Z"/><path class="aac4fcf8-3ad4-4745-bcda-d8b206173e69" d="M126.61,33c0-1.05.48-1.57,1.44-1.57s1.49.52,1.49,1.57v1.52a6.67,6.67,0,0,1,6-3.49,7.7,7.7,0,0,1,7.84,7.67v13.9c0,1-.49,1.44-1.49,1.44a1.28,1.28,0,0,1-1.45-1.44V40c0-4-2.69-6-5.38-6s-5.54,2.05-5.54,6V52.62a1.47,1.47,0,0,1-2.93,0Z"/><path class="aac4fcf8-3ad4-4745-bcda-d8b206173e69" d="M157.73,31.21c5.34,0,8.15,3.21,8.15,7.27V52.9a1.49,1.49,0,0,1-3,0c0-.77,0-1,0-1.37A9.43,9.43,0,0,1,156,54.38c-3.94,0-7.71-2.21-7.71-6.7,0-4.7,4.3-7.11,8.52-7.11,2.28,0,4.73.68,6.06,2V38.76c0-2.77-2.25-4.62-6-4.62-2.61,0-4.29,1-5.54,1a1.21,1.21,0,0,1-1.36-1.25,1.76,1.76,0,0,1,1.12-1.45A17.3,17.3,0,0,1,157.73,31.21Zm-1.21,20.36c3.06,0,6.31-1.6,6.31-4.38,0-2.45-3.05-3.85-6-3.85-2.81,0-5.5,1.28-5.5,4.1S153.79,51.57,156.52,51.57Z"/><path class="aac4fcf8-3ad4-4745-bcda-d8b206173e69" d="M179.23,51.53c2.17,0,4.94-.88,4.94-3.49,0-2-2.49-3.1-4.61-3.86-3.66-1.32-8.08-3.09-8.08-6.5,0-4.54,3.82-6.55,8.08-6.55a13.06,13.06,0,0,1,6.22,1.45,1.55,1.55,0,0,1,.77,1.4,1.3,1.3,0,0,1-1.37,1.41,1.82,1.82,0,0,1-.88-.24,10.8,10.8,0,0,0-4.82-1c-2.37,0-4.82.85-4.82,3.22,0,1.84,3.13,2.81,6.14,4,3.3,1.37,6.67,2.77,6.67,6.39,0,4.94-4.34,6.74-8.31,6.74a13.44,13.44,0,0,1-7.43-2.36,1.45,1.45,0,0,1-.52-1.21c0-1.12.56-1.65,1.32-1.65a2.18,2.18,0,0,1,1.17.45A10.11,10.11,0,0,0,179.23,51.53Z"/><path class="aac4fcf8-3ad4-4745-bcda-d8b206173e69" d="M92.13,37.29a1.32,1.32,0,0,1,1.82-1,1.36,1.36,0,0,1,1.13,1.84L89.94,57.26A1.52,1.52,0,0,1,87,56.47Z"/><g id="bf705a74-8f40-4de6-91ac-6d5419469c9c" data-name="mezzio"><path class="bd210623-e1f1-42f3-85cc-b05cfa904402" d="M117.82,67.87v8.7a.6.6,0,0,1-.2.52,1,1,0,0,1-1.06,0,.62.62,0,0,1-.19-.52V66.09a.79.79,0,0,1,.27-.69,1.21,1.21,0,0,1,.72-.2,1.31,1.31,0,0,1,.7.16,1.14,1.14,0,0,1,.35.49l4,9.5,4-9.5a1.14,1.14,0,0,1,.35-.49,1.42,1.42,0,0,1,1.38,0,.86.86,0,0,1,.24.69V76.57a.62.62,0,0,1-.18.52.84.84,0,0,1-.53.15.87.87,0,0,1-.54-.15.57.57,0,0,1-.19-.52V67.85l-3.76,8.64a1,1,0,0,1-.31.41,1,1,0,0,1-1.12,0,.9.9,0,0,1-.31-.41Z"/><path class="bd210623-e1f1-42f3-85cc-b05cfa904402" d="M138.54,72.65c0,.41-.23.61-.69.61h-5.78a3,3,0,0,0,.69,2.12,2.43,2.43,0,0,0,1.94.75,2.36,2.36,0,0,0,1.48-.43,2.1,2.1,0,0,0,.42-.37l.26-.32a1.09,1.09,0,0,1,.23-.25.55.55,0,0,1,.33-.09.87.87,0,0,1,.47.15.5.5,0,0,1,.23.41,1,1,0,0,1-.19.53,3.42,3.42,0,0,1-.4.52,3.17,3.17,0,0,1-.63.53,3.67,3.67,0,0,1-.92.43,4.29,4.29,0,0,1-1.28.17,4.22,4.22,0,0,1-1.72-.33,3.55,3.55,0,0,1-1.32-.94,4.08,4.08,0,0,1-.83-1.44,6,6,0,0,1,0-3.7,4.05,4.05,0,0,1,.82-1.44,3.84,3.84,0,0,1,1.29-.93,4.43,4.43,0,0,1,1.69-.33,4.08,4.08,0,0,1,1.69.33,3.46,3.46,0,0,1,1.22.92,4.13,4.13,0,0,1,.75,1.38A5.6,5.6,0,0,1,138.54,72.65Zm-3.91-3.11a2.65,2.65,0,0,0-1,.19,2.09,2.09,0,0,0-.75.53,2.56,2.56,0,0,0-.49.78,3.82,3.82,0,0,0-.23,1h5a3.79,3.79,0,0,0-.21-.93,2.25,2.25,0,0,0-1.2-1.32A2.69,2.69,0,0,0,134.63,69.54Z"/><path class="bd210623-e1f1-42f3-85cc-b05cfa904402" d="M141.52,75.9h5.1a.56.56,0,0,1,.46.16.73.73,0,0,1,.12.45.71.71,0,0,1-.12.45.5.5,0,0,1-.46.16h-6.16c-.55,0-.83-.25-.83-.75a.71.71,0,0,1,.07-.35,2.27,2.27,0,0,1,.29-.4l5-5.81H140.4a.5.5,0,0,1-.46-.16.71.71,0,0,1-.12-.45.73.73,0,0,1,.12-.45.54.54,0,0,1,.46-.17H146q.84,0,.84.75a.84.84,0,0,1-.07.35,2,2,0,0,1-.29.4Z"/><path class="bd210623-e1f1-42f3-85cc-b05cfa904402" d="M150.05,75.9h5.1a.56.56,0,0,1,.46.16.73.73,0,0,1,.12.45.71.71,0,0,1-.12.45.5.5,0,0,1-.46.16H149c-.56,0-.83-.25-.83-.75a1.07,1.07,0,0,1,.06-.35,2.7,2.7,0,0,1,.29-.4l5-5.81H149a.53.53,0,0,1-.46-.16.71.71,0,0,1-.12-.45.73.73,0,0,1,.12-.45.57.57,0,0,1,.46-.17h5.63c.55,0,.83.25.83.75a.84.84,0,0,1-.07.35,1.47,1.47,0,0,1-.29.4Z"/><path class="bd210623-e1f1-42f3-85cc-b05cfa904402" d="M157.31,66.12a1,1,0,0,1,.26-.69,1,1,0,0,1,.66-.24,1,1,0,0,1,.65.24.89.89,0,0,1,.27.69.88.88,0,0,1-.92.93,1,1,0,0,1-.66-.24A.92.92,0,0,1,157.31,66.12Zm.21,3a.69.69,0,0,1,.18-.54,1.11,1.11,0,0,1,1.06,0,.62.62,0,0,1,.2.54v7.41a.59.59,0,0,1-.2.53,1,1,0,0,1-1.06,0,.61.61,0,0,1-.18-.53Z"/><path class="bd210623-e1f1-42f3-85cc-b05cfa904402" d="M161.09,72.83a5.65,5.65,0,0,1,.29-1.91,4.09,4.09,0,0,1,.85-1.43,3.85,3.85,0,0,1,1.32-.89,5.09,5.09,0,0,1,3.4,0,3.85,3.85,0,0,1,1.32.89,4.09,4.09,0,0,1,.85,1.43,5.65,5.65,0,0,1,.3,1.91,5.73,5.73,0,0,1-.3,1.93,4,4,0,0,1-.85,1.43,3.74,3.74,0,0,1-1.32.9,4.64,4.64,0,0,1-3.4,0,3.74,3.74,0,0,1-1.32-.9,4,4,0,0,1-.85-1.43A5.72,5.72,0,0,1,161.09,72.83Zm1.53,0a3.9,3.9,0,0,0,.68,2.44,2.28,2.28,0,0,0,2,.88,2.32,2.32,0,0,0,2-.88,3.9,3.9,0,0,0,.68-2.44,3.85,3.85,0,0,0-.68-2.41,2.36,2.36,0,0,0-2-.87,2.33,2.33,0,0,0-2,.87A3.85,3.85,0,0,0,162.62,72.83Z"/></g></g></svg>